HIERARCHY
ROOT Hips
{
	OFFSET 0.00000 0.00000 0.00000
	CHANNELS 6 Xposition Yposition Zposition Yrotation Zrotation Xrotation 
	JOINT Lumbar
	{
		OFFSET 0 0 0
		CHANNELS 3 Zrotation Xrotation Yrotation
		JOINT Neck
		{
			OFFSET 0.00 0.2701 0.00
			CHANNELS 3 Zrotation Xrotation Yrotation
			End Site
			{
				OFFSET 0.00 0.1379 0.00
			}
		}
		JOINT RightShoulder
		{
			OFFSET 0.0119 0.2289 0.1181
			CHANNELS 3 Zrotation Xrotation Yrotation
			JOINT RightElbow
			{
				OFFSET 0.00 -0.1475 0.00
				CHANNELS 2 Zrotation Yrotation
				JOINT RightWrist
				{
					OFFSET 0.00 -0.1605 0.00
					CHANNELS 2 Zrotation Xrotation
					End Site
					{
						OFFSET 0.0040 -0.1068 0.0006
					}
				}
			}
		}
		JOINT LeftShoulder
		{
			OFFSET 0.0119 0.2289 -0.1181
			CHANNELS 3 Zrotation Xrotation Yrotation
			JOINT LeftElbow
			{
				OFFSET 0.00 -0.1475 0.00
				CHANNELS 2 Zrotation Yrotation
				JOINT LeftWrist
				{
					OFFSET 0.00 -0.1605 0.00
					CHANNELS 2 Zrotation Xrotation
					End Site
					{
						OFFSET 0.0040 -0.1068 -0.0006
					}
				}
			}
		}
	}
	JOINT RightHip
	{
		OFFSET 0.0316 -0.0424 0.0458
		CHANNELS 3 Zrotation Xrotation Yrotation
		JOINT RightKnee
		{
			OFFSET 0.00 -0.2438 0.00
			CHANNELS 1 Zrotation
			JOINT RightAnkle
			{
				OFFSET 0.00 -0.2449 0.00
				CHANNELS 3 Zrotation Xrotation Yrotation
				End Site
				{
					OFFSET 0.1237 -0.0542 0.0051
				}
			}
		}
	}
	JOINT LeftHip
	{
		OFFSET 0.0316 -0.0424 -0.0458
		CHANNELS 3 Zrotation Xrotation Yrotation
		JOINT LeftKnee
		{
			OFFSET 0.00 -0.2438 0.00
			CHANNELS 1 Zrotation
			JOINT LeftAnkle
			{
				OFFSET 0.00 -0.2449 0.00
				CHANNELS 3 Zrotation Xrotation Yrotation
				End Site
				{
					OFFSET 0.1237 -0.0542 -0.0051
				}
			}
		}
	}
}
MOTION
Frames: 11
Frame Time: 0.02
0.29993 0.05587 0.07466 28.77777 -10.67956 -2.07225 37.07628 5.52644 -1.24359 -19.3521 -3.2628 -2.11994 -15.39262 -18.01681 -2.53458 33.86362 87.76684 2.60717 1.30587 86.70823 57.36721 -55.52264 11.80469 -9.71863 -28.97491 -14.77905 16.68963 3.25137 -14.99729 -10.80894 -8.43258 -3.66366 -4.10142 26.01396 9.02614 6.47779 -21.17004 -9.34373 1.33735 3.00672
0.30054 0.05576 0.07582 28.84979 -10.68218 -2.18133 37.09268 5.40785 -0.98939 -19.43961 -2.72434 -2.11994 -15.06387 -17.54664 -2.62503 33.90003 90.57777 3.20142 2.02461 82.10393 59.28201 -54.40209 16.00727 -30.62611 -18.1303 -13.06758 16.64329 3.50325 -15.17674 -10.69196 -8.4105 -3.65464 -4.09746 25.9393 9.24968 6.39615 -20.95134 -9.3398 1.32371 3.00183
0.3012 0.05568 0.07692 28.87546 -10.68251 -2.2711 37.1161 5.27136 -0.78518 -19.44736 -2.26902 -2.11994 -14.89982 -16.98837 -2.76542 34.07115 94.4943 4.17392 2.9723 76.81609 61.30958 -52.98211 21.12804 -57.42149 -4.33208 -10.77401 16.5786 3.74135 -15.31525 -10.54866 -8.38849 -3.64271 -4.09284 25.81399 9.45715 6.05015 -20.67585 -9.33761 1.31033 2.99882
0.30184 0.05559 0.07804 28.92128 -10.68433 -2.36919 37.13525 5.14413 -0.56591 -19.4848 -1.78804 -2.11994 -14.66915 -16.46832 -2.87403 34.17996 97.75539 4.92975 3.78528 71.88813 63.24752 -51.74666 25.82372 -80.67015 7.68109 -8.8055 16.52353 3.98517 -15.46244 -10.41827 -8.36754 -3.63358 -4.08894 25.7149 9.67122 5.83453 -20.43119 -9.33495 1.29711 2.99498
0.3025 0.0555 0.07919 28.96954 -10.68397 -2.47027 37.15887 5.01198 -0.31737 -19.54815 -1.25507 -2.11994 -14.40294 -15.95201 -3.02426 34.29496 101.65468 5.86954 4.72675 66.73268 65.35878 -50.30718 30.56633 -107.58682 21.57164 -6.58249 16.46205 4.23264 -15.65027 -10.28316 -8.34203 -3.6185 -4.08331 25.59928 9.89288 5.58015 -20.1621 -9.33072 1.28093 2.99012
0.30311 0.05542 0.08027 29.00095 -10.68856 -2.55989 37.17562 4.88574 -0.14085 -19.53925 -0.85067 -2.11994 -14.24939 -15.40961 -3.09441 34.42626 104.49035 6.51787 5.45565 61.90215 67.12558 -49.22028 35.4223 -128.28183 32.25208 -4.75094 16.4114 4.46837 -15.74549 -10.15275 -8.3257 -3.61465 -4.08097 25.50829 10.09346 5.34322 -19.93228 -9.33028 1.27164 2.98817
0.30358 0.05539 0.08118 29.013 -10.69658 -2.62533 37.1622 4.78218 -0.14725 -19.35013 -0.77915 -2.11994 -14.37709 -14.80303 -2.98215 34.59744 104.11637 6.26942 5.53633 58.06394 67.98347 -49.19179 40.38431 -130.14379 33.32342 -4.14189 16.37662 4.6791 -15.579 -10.03102 -8.33875 -3.64706 -4.08952 25.48395 10.23528 5.2018 -19.81685 -9.33959 1.28195 2.99405
0.304 0.05537 0.08203 29.00697 -10.7113 -2.6792 37.14301 4.68492 -0.22492 -19.09117 -0.83509 -2.11994 -14.61117 -14.17613 -2.7794 34.77584 102.63559 5.71524 5.39544 54.59177 68.47538 -49.52501 45.42209 -125.57767 31.06765 -3.94603 16.35631 4.8775 -15.32361 -9.91669 -8.36036 -3.69006 -4.10111 25.48854 10.35623 5.0879 -19.74459 -9.35276 1.2995 3.00295
0.30443 0.05535 0.08291 28.99946 -10.73028 -2.73655 37.13297 4.58343 -0.27153 -18.86479 -0.83328 -2.11994 -14.78946 -13.56797 -2.58339 34.93213 101.66363 5.30128 5.36051 51.00103 69.09059 -49.68689 50.41386 -124.09438 30.34471 -3.56258 16.34196 5.07885 -15.11945 -9.8062 -8.3754 -3.72525 -4.11024 25.48972 10.48939 4.97392 -19.65829 -9.36433 1.31342 3.01032
0.30489 0.05533 0.08379 29.03191 -10.71945 -2.80105 37.09682 4.48683 -0.31312 -18.63271 -0.83147 -2.11994 -15.00331 -12.91677 -2.52956 35.17039 100.7043 4.89482 5.31462 47.18397 69.89859 -49.87337 55.49324 -122.14155 29.6259 -3.1617 16.27578 5.2913 -14.86838 -9.66519 -8.4016 -3.77294 -4.12391 25.44975 10.61198 4.80477 -19.54699 -9.37516 1.32809 3.01806
0.30527 0.05531 0.08466 28.97657 -10.77096 -2.84779 37.11209 4.3821 -0.38297 -18.39614 -0.86154 -2.11994 -15.1682 -12.35127 -2.16335 35.24065 99.44297 4.39549 5.23183 43.93483 70.20768 -50.09129 60.38798 -119.55485 28.08401 -2.89825 16.31903 5.47743 -14.69415 -9.58883 -8.40678 -3.79722 -4.12884 25.50081 10.75005 4.75247 -19.49806 -9.38862 1.34373 3.02615
